<svg width="32" height="32" viewBox="0 0 32 32" fill="none" xmlns="http://www.w3.org/2000/svg">
<path fill-rule="evenodd" clip-rule="evenodd" d="M4.9038 6.62786C5.39643 3.79381 7.97592 2.66699 9.96959 2.66699H25.9308C26.6631 2.66699 27.3344 2.84585 27.8972 3.22373C28.4536 3.59736 28.792 4.0902 28.9932 4.54C29.3453 5.32708 29.3353 6.13614 29.3328 6.33405C29.3327 6.34662 29.3325 6.35672 29.3325 6.3642C29.3325 6.55655 29.2866 6.95291 29.2447 7.30901C29.1948 7.73345 29.124 8.30225 29.0397 8.96248C28.8709 10.2841 28.6463 11.988 28.4219 13.6706C28.1975 15.3539 27.9732 17.0182 27.8049 18.2615C27.7208 18.8832 27.6507 19.3998 27.6016 19.761L27.5245 20.3275C27.5245 20.3275 27.5244 20.3281 25.9308 20.1168L27.5245 20.3275L27.5146 20.4002L27.4981 20.4711C27.0954 22.2041 26.218 23.3611 25.126 24.0494C24.0797 24.709 22.9918 24.8412 22.2854 24.8412H15.965C15.5384 25.2157 14.9807 25.6895 14.4284 26.1587C14.3375 26.2359 14.2467 26.313 14.1567 26.3896C13.2229 27.1835 12.3751 27.9102 12.0233 28.2571C11.6453 28.6299 11.2105 28.9769 10.7135 29.1711C10.1603 29.3872 9.41889 29.4416 8.75291 28.9943C8.1873 28.6143 7.97045 28.0592 7.88315 27.7478C7.7864 27.4026 7.76625 27.065 7.77462 26.8009L7.77583 26.7629L7.93048 24.8412H6.48868C5.06951 24.8412 3.63089 24.4604 2.9778 23.0517C2.70843 22.4707 2.66002 21.8677 2.66745 21.378C2.67496 20.8825 2.74464 20.3606 2.81438 19.8883C3.39412 15.9623 4.62297 8.2434 4.9038 6.62786ZM24.3476 19.8285L24.4141 19.3397C24.4631 18.979 24.5331 18.463 24.6172 17.842C24.7853 16.5998 25.0093 14.9377 25.2334 13.2572C25.4575 11.5761 25.6813 9.87913 25.8489 8.56629C25.9327 7.90929 26.002 7.35246 26.0502 6.94336C26.0799 6.69065 26.0968 6.53104 26.106 6.44321C26.1143 6.3651 26.1165 6.34377 26.1165 6.3642C26.1165 6.35182 26.1166 6.33975 26.1166 6.32791C26.1168 6.23723 26.1169 6.16005 26.106 6.06065C26.0956 5.96578 26.0785 5.89433 26.0615 5.84702C26.0325 5.84255 25.9899 5.83861 25.9308 5.83861H9.96959C8.94826 5.83861 8.21239 6.36505 8.07355 7.16374C7.79889 8.74383 6.57433 16.4344 5.99681 20.3454C5.92751 20.8146 5.88717 21.1559 5.88308 21.4254C5.88183 21.5082 5.88443 21.5718 5.88827 21.6196C5.99734 21.6435 6.18635 21.6696 6.48868 21.6696H11.4118L11.164 24.7496C11.456 24.4985 11.761 24.2389 12.0569 23.9873C12.1399 23.9167 12.2224 23.8466 12.3041 23.7772C13.1404 23.0665 13.889 22.4303 14.2321 22.1077L14.698 21.6696H22.2854C22.6205 21.6696 23.037 21.6021 23.394 21.3771C23.6983 21.1853 24.1109 20.7868 24.3476 19.8285ZM9.27829 11.2507C9.27829 10.3749 9.99821 9.66494 10.8863 9.66494H21.0124C21.9005 9.66494 22.6204 10.3749 22.6204 11.2507C22.6204 12.1266 21.9005 12.8366 21.0124 12.8366H10.8863C9.99821 12.8366 9.27829 12.1266 9.27829 11.2507ZM14.3703 16.1013C14.3703 15.2254 15.0902 14.5154 15.9783 14.5154H20.4338C21.3218 14.5154 22.0418 15.2254 22.0418 16.1013C22.0418 16.9771 21.3218 17.6871 20.4338 17.6871H15.9783C15.0902 17.6871 14.3703 16.9771 14.3703 16.1013Z" fill="#009BFF"/>
</svg>
